<?xml version="1.0" standalone="no"?>
<!DOCTYPE svg PUBLIC "-//W3C//DTD SVG 20010904//EN"
 "http://www.w3.org/TR/2001/REC-SVG-20010904/DTD/svg10.dtd">
<svg version="1.0" xmlns="http://www.w3.org/2000/svg"
 width="140.000000pt" height="142.000000pt" viewBox="0 0 140.000000 142.000000"
 preserveAspectRatio="xMidYMid meet">

<g transform="translate(0.000000,142.000000) scale(0.100000,-0.100000)"
fill="#FFFFFF" stroke="none">
<path d="M682 1394 c23 -26 439 -649 466 -701 25 -45 32 -109 18 -161 -14 -56
-176 -316 -206 -332 -21 -11 -110 -13 -135 -4 -21 9 -255 359 -255 382 0 29
30 62 56 62 13 0 24 3 24 8 0 10 -67 111 -93 140 -24 26 -58 29 -79 5 -31 -36
-98 -157 -104 -188 -3 -18 -1 -49 5 -71 11 -42 293 -476 330 -509 20 -18 40
-20 170 -23 124 -2 151 0 181 15 26 14 65 62 158 198 159 232 177 269 176 360
0 39 -7 86 -16 106 -8 19 -113 185 -233 367 -162 248 -225 337 -249 349 -21
12 -64 18 -136 21 l-105 4 27 -28z"/>
<path d="M488 1378 c-80 -108 -453 -657 -464 -683 -24 -58 -27 -128 -10 -189
21 -71 267 -451 311 -481 25 -16 50 -20 140 -22 61 -1 104 0 97 3 -16 7 -299
435 -319 483 -18 42 -19 122 -2 164 7 18 71 119 142 226 106 159 131 191 141
180 29 -32 296 -451 302 -475 8 -33 -20 -64 -57 -64 l-29 0 52 -81 c78 -123
106 -123 179 -1 55 91 64 125 49 184 -7 26 -102 180 -248 403 -129 198 -241
366 -247 373 -10 11 -17 8 -37 -20z"/>
</g>
</svg>
